<svg id="Layer_1" data-name="Layer 1" xmlns="http://www.w3.org/2000/svg" viewBox="0 0 1750.34 2254.94">
  <defs>
    <style>
      .cls-1 {
        fill: #bcbebd;
      }

      .cls-2 {
        fill: #2d67b1;
      }
    </style>
  </defs>
  <g>
    <path class="cls-1" d="M2379.2,2256.17l-530.74,2.76a26.52,26.52,0,0,0-20.34,9.65l-999,1211.06c-14.28,17.32-2,43.44,20.48,43.44H2049.24a26.57,26.57,0,0,1,18.86,7.86l275.75,278.26c21.76,23,60.41,7.94,61-23.69l1.08-1502.77A26.55,26.55,0,0,0,2379.2,2256.17Z" transform="translate(-655.54 -1593.79)"/>
    <path class="cls-2" d="M655.54,2272.14v1550c0,26.17,33.86,36.55,48.53,14.88l351.22-518.85a26.56,26.56,0,0,1,11.12-9.34L1943.64,2915a26.55,26.55,0,0,0,15.67-24.22V1620.37a26.54,26.54,0,0,0-38.81-23.54L669.82,2248.59A26.55,26.55,0,0,0,655.54,2272.14Z" transform="translate(-655.54 -1593.79)"/>
  </g>
</svg>
